<mxfile host="app.diagrams.net" modified="2023-10-17T10:19:44.178Z" agent="Mozilla/5.0 (Macintosh; Intel Mac OS X 10_15_7) AppleWebKit/537.36 (KHTML, like Gecko) Chrome/116.0.0.0 Safari/537.36" version="22.0.4" etag="CWPYCkLRhOzDSkRMC2Xm" type="github">
  <diagram name="Page-1" id="16XnlyzRVhk2_nAnZEXL">
    <mxGraphModel>
      <root>
        <mxCell id="0" />
        <mxCell id="1" parent="0" />
      </root>
    </mxGraphModel>
  </diagram>
</mxfile>
